<svg width="728" height="444" viewBox="0 0 728 444" fill="none" xmlns="http://www.w3.org/2000/svg">
<path d="M580.5 344.1C631.09 344.1 672.1 303.089 672.1 252.5C672.1 201.911 631.09 160.9 580.5 160.9C529.911 160.9 488.9 201.911 488.9 252.5C488.9 303.089 529.911 344.1 580.5 344.1Z" fill="#5FD1CF"/>
<path d="M114.6 292.8C32.5 305.6 0 341.4 0 443.1H319.5V183.6C237 107.4 98 179.7 114.6 292.8Z" fill="#7CE4CC"/>
<path d="M0 443.1C62.8 310.9 184.7 347.8 184.7 347.8C136.7 252.9 209.9 153.8 314.4 167.7L369.4 443.1H0Z" fill="#5FD1CF"/>
<path d="M727.7 443.1C721.4 361 681.2 315.9 603.4 287.4C591 182.6 510.1 177.9 463 198.4V443.1H727.7Z" fill="#5FD1CF"/>
<path d="M603.4 287.4C592.5 195.2 528.5 180.5 481.2 192.2C515.7 267.6 514.4 318.8 514.4 318.8C602.6 308.1 661 321 713.7 380.9C695.2 336.4 658.8 307.7 603.4 287.4Z" fill="#7CE4CC"/>
<path d="M260.601 443.1H612.001V105L260.601 128V443.1Z" fill="#944751"/>
<path d="M536.401 110C536.501 123.2 532.701 161.4 531.601 175.2C530.501 189 526.401 186.5 526.401 167.7C526.401 148.9 527.601 131.6 526.401 123C525.812 118.923 525.444 114.817 525.301 110.7L536.401 110Z" fill="#873D47"/>
<path d="M586.2 316.2C582.5 352.4 572.2 337.9 576.8 296.2C581.4 254.5 564.8 210.2 563.3 167.7C561.8 125.2 558.5 108.5 558.5 108.5L581.4 107C585.2 159.2 588.4 203.4 589.7 224.4C591.1 247.3 589.8 280 586.2 316.2Z" fill="#873D47"/>
<path d="M612.001 105C546.701 94.0999 360.301 93.6999 260.601 128L612.001 105Z" fill="#E8B19E"/>
<path d="M499.201 109.4L583.901 104.4C583.901 104.4 521.701 101 495.101 101.7L499.201 109.4Z" fill="#E89B80"/>
<path d="M595.401 416.4C595.301 422.5 595.301 433.4 595.301 443.1H260.601V189.2H570.701L578.401 236.4C584.901 276.6 594.401 325.7 595.401 356.5C596.401 387.3 595.601 403.4 595.401 416.4Z" fill="#57273F"/>
<path d="M449.6 443.1C451 425.5 467.4 377.1 467.4 377.1H257.9V443.1H449.6Z" fill="#4A2336"/>
<path d="M522 443.1C522 411 527 402.9 532.4 388.7C537.8 374.5 539.2 367 542.3 344.2C545.4 321.4 546.8 264 546.8 264H524.9C523.9 308.3 527 348.8 522 366.4C517 384 505.4 395.3 503.1 410.6C500.8 425.9 499.2 443.1 499.2 443.1H522Z" fill="#4F2439"/>
<path d="M575.101 387.5L580.401 385.1C580.501 385.1 580.501 384.9 580.401 384.9L575.101 382.5H575.001L572.701 377.2H572.501L570.101 382.5L564.801 384.9C564.701 384.9 564.701 385.1 564.801 385.1L570.101 387.5L572.501 392.8H572.701L575.001 387.5H575.101Z" fill="#ED5C97"/>
<path d="M612 302.5C612 326 615.9 351.6 636.5 372.7C657.1 393.8 662.1 399.3 666 411.6C669.9 423.9 675.8 429.8 675.8 429.8L690.6 436.4C694.5 438.1 695 443.1 695 443.1H612V302.5Z" fill="#944751"/>
<path d="M628.8 369.8C626.5 374.5 626.6 382.4 626.6 388.7C626.6 395 627.9 405 628.2 411.5C628.5 418 629.6 419.5 627.4 422.9C625.2 426.3 623.7 434.4 623.3 443.1H612C612 436.4 612 432.1 614.4 426.7C616.8 421.3 618.1 421.1 617.8 408.9C617.5 396.7 619.4 375.4 628.2 362.9L630.7 366.2L628.8 369.8Z" fill="#873D47"/>
<path d="M639.801 443.1C640.001 429.9 639.901 428.5 644.501 422.6C649.101 416.7 649.801 416.7 649.801 410.5C649.801 404.3 649.601 397.7 651.901 394.5C652.617 393.461 653.535 392.577 654.601 391.9L650.401 387.2C645.101 392.4 643.101 402.3 642.901 410.9C642.701 421 642.201 420 638.601 424.6C635.001 429.2 634.801 430 634.101 443.1H639.801Z" fill="#873D47"/>
<path d="M669.401 443.1C669.889 440.892 670.223 438.654 670.401 436.4C670.601 433.4 670.401 432.6 675.001 428.8C671.84 424.846 669.31 420.427 667.501 415.7C662.301 420.1 662.601 422.9 661.701 427.2C660.842 432.672 659.296 438.014 657.101 443.1H669.401Z" fill="#873D47"/>
<path d="M558.5 307.7C558.7 320.5 559.8 326.5 563.3 332.2C566.8 337.9 568.1 334.6 570.7 324.4C573.3 314.2 571 308.7 570.7 298.5C570.4 288.3 567.9 282.8 566.3 277.6C564.7 272.4 558 271.7 558.5 284.9C559 298.1 558.4 302.1 558.5 307.7Z" fill="#4F2439"/>
<path d="M586.4 108.6L589.2 92.7L592.7 102L597.8 96.9L599.6 107.7L586.4 108.6Z" fill="#944751"/>
<path d="M576.1 443.1C588.1 415.5 569 414.1 559.8 426.6C561.4 399 546.4 374.4 534.7 416.3C522.4 393.6 500.7 383.2 513.4 429.4C492.5 416.6 483.5 422.1 501.1 443.1H576.1Z" fill="#2A5D6B"/>
<path d="M525.201 443.1C513.601 424.3 528.801 417.5 537.201 430.5C549.201 406.2 559.501 401.2 552.401 443.1H525.201Z" fill="#25525E"/>
<path d="M243.699 113.8L215.299 217.7C198.499 279.6 200.499 359.3 311.099 436.4C432.299 423.9 505.099 361 525.799 285.2L557.199 170.3C513.999 148.1 486.099 127.1 483.299 77.5999L344.599 52.7C318.899 96 270.099 108.1 243.699 113.8Z" fill="#DEE5FF"/>
<path d="M236.7 313.6L371.4 215.6V246.7L258.1 364.2L236.7 313.6Z" fill="#D4DFFF"/>
<path d="M214.5 220.9C210.275 236.7 207.959 252.949 207.6 269.3L406.5 65.0999L394.8 69.3999L233.6 180.3L214.5 220.9Z" fill="#EBFAFF"/>
<path d="M538.199 178.5L510.199 281C500.499 316.6 478.199 348.2 445.999 372.3C411.799 397.7 366.499 414.5 314.399 420.9C340.899 247.1 404.699 78.7 404.699 78.7L467.399 90C471.199 111.3 479.799 129.3 493.499 144.6C507.199 159.9 521.799 169.3 538.199 178.5Z" fill="#C4CFFF"/>
<path d="M341 267.3L426.3 399L504.9 326L372.9 212.4L341 267.3Z" fill="#B8C0FF"/>
<path d="M373.6 171.2C369.6 183.9 365.5 197.7 361.3 212.4L499.2 150.5C497.2 148.6 495.3 146.6 493.5 144.6C484.276 134.345 477.143 122.388 472.5 109.4L373.6 171.2Z" fill="#CFD8FF"/>
<path d="M500.299 74.1999L356.799 48.3999C330.199 93.1999 279.599 105.8 252.399 111.7L223 219.2C205.7 282.6 197.5 364.1 308.7 443.1H341.1C455.2 425.9 524 363.4 544.299 289C565.699 210.6 576.799 170.1 576.799 170.1C532.099 147.1 503.199 125.4 500.299 74.1999ZM523.7 283.4C513.9 319.1 491.699 350.6 459.499 374.7C425.299 400.1 372.7 416.4 320.6 422.9C276.6 390.9 252.7 356.1 240.6 319.3C231.2 290.5 231.299 259.5 240.899 224.4L266.899 129.2C292.699 122.8 335.499 108.5 363.899 71.3999L480.9 92.3999C484.7 113.8 493.3 131.7 507 147C520.7 162.3 535.3 171.7 551.7 180.9L523.7 283.4Z" fill="#2949C7"/>
<path d="M363.9 71.3999L353.2 69.3999L256.1 127.2L266.9 129.2C279.568 126.031 291.972 121.886 304 116.8C323.5 108.5 346.9 93.6999 363.9 71.3999Z" fill="#203DB3"/>
<path d="M544.3 289C565.7 210.6 576.8 170.1 576.8 170.1L563.3 167.7L551.3 180.7L551.7 180.9L523.7 283.4C513.9 319.1 491.7 350.6 459.5 374.7C427.3 398.8 377.8 414.8 328.3 421.8L308.7 443.1H341.1C455.2 425.9 524 363.4 544.3 289Z" fill="#203DB3"/>
<path d="M499.4 334.3C488.272 349.751 474.812 363.38 459.5 374.7C427 398.9 377.8 414.8 328.3 421.8L308.7 443.1H341.1C431.1 429.5 492.8 387.8 524.9 334.3H499.4Z" fill="#1D38A3"/>
<path d="M429 392.9C399.7 407 364.1 416.7 328.3 421.8L308.7 443.1H341.1C394.3 435.1 437.6 417.2 470.8 392.9H429Z" fill="#152875"/>
<path d="M486.8 71.7999L343.3 45.8999C316.7 90.7999 266.2 103.4 238.9 109.2L209.5 216.8C192 280.8 194.1 363.3 308.7 443.1C434.1 430.2 509.4 365 530.8 286.6C552.2 208.2 563.3 167.7 563.3 167.7C518.6 144.7 489.8 123 486.8 71.7999ZM510.2 281C500.5 316.6 478.2 348.2 446 372.3C411.8 397.7 366.5 414.5 314.4 420.9C270.4 388.9 242 354.1 229.9 317.4C220.5 288.6 220.5 257.5 230.1 222.4L256.1 127.2C281.9 120.9 324.8 106.6 353.2 69.3999L467.4 89.9999C471.2 111.3 479.8 129.3 493.5 144.6C507.2 159.9 521.8 169.3 538.2 178.5L510.2 281Z" fill="#466AE1"/>
<path d="M430.2 197.6C414.1 179.1 395.5 176.1 395.5 176.1L393.1 178C413.9 189 422.4 201.1 422.9 201.8C411.811 192.442 398.957 185.403 385.1 181.1C376.16 178.414 366.924 176.836 357.6 176.4C356.812 176.229 356.005 176.162 355.2 176.2C344.201 175.608 333.176 176.687 322.5 179.4C317.4 180.7 314.1 181.8 313.7 181.9C313.3 182 328 172.8 353.2 170.2L352.2 168.3C352.2 168.3 333.8 164.5 311 175.9C311 175.9 283.6 208.6 273.8 253.2C273.8 253.2 280.8 275.4 310.5 281.9C310.5 281.9 316.9 276.6 322.1 272.1C306.6 263.9 302.2 252.1 302 251.4L305.2 254.4L305.7 254.8L306.8 255.7C309.573 258.106 312.514 260.311 315.6 262.3C321.49 266.155 327.755 269.405 334.3 272C345.477 276.391 357.392 278.598 369.4 278.5C376.432 278.448 383.439 277.643 390.3 276.1C396.29 274.935 402.128 273.09 407.7 270.6C407.7 270.6 398.5 280.7 379.6 282.7C382.5 288.6 386.1 295.5 386.1 295.5C416.2 300 432 282.1 432 282.1C441.8 237.4 430.2 197.6 430.2 197.6ZM330.5 250C322.9 248.6 318.1 240.6 320 232.1C321.9 223.6 329.5 217.8 337.2 219.2C344.9 220.6 349.7 228.6 347.7 237.1C345.7 245.6 338.2 251.4 330.5 250ZM380 259C372.4 257.6 367.6 249.7 369.5 241.1C371.4 232.5 379 226.8 386.7 228.2C394.4 229.6 399 237.6 397.2 246.2C395.4 254.8 387.7 260.4 380 259Z" fill="#444A82"/>
<path d="M369.199 355.2L374.499 352.9C374.599 352.8 374.599 352.7 374.499 352.7L369.199 350.3H369.099L366.799 345C366.699 344.9 366.599 344.9 366.599 345L364.199 350.3H364.099L358.899 352.7C358.799 352.7 358.799 352.8 358.899 352.9L364.099 355.2C364.112 355.2 364.125 355.202 364.137 355.207C364.15 355.212 364.161 355.22 364.17 355.229C364.179 355.238 364.187 355.249 364.192 355.262C364.197 355.274 364.199 355.287 364.199 355.3L366.599 360.6H366.799L369.099 355.3L369.199 355.2Z" fill="#CFD8FF"/>
<path d="M479.799 271.4L467.399 256.6H497.199L479.799 271.4Z" fill="#B8C0FF"/>
<path d="M426.3 356.5C428.343 356.5 430 354.843 430 352.8C430 350.756 428.343 349.1 426.3 349.1C424.256 349.1 422.6 350.756 422.6 352.8C422.6 354.843 424.256 356.5 426.3 356.5Z" fill="#C4CAFF"/>
<path d="M370.159 132.628L366.988 128.134L362.478 131.316L365.648 135.81L370.159 132.628Z" fill="#EDF1FF"/>
<path d="M352.3 324.7C354.399 324.7 356.1 322.999 356.1 320.9C356.1 318.801 354.399 317.1 352.3 317.1C350.201 317.1 348.5 318.801 348.5 320.9C348.5 322.999 350.201 324.7 352.3 324.7Z" fill="#C4CAFF"/>
<path d="M215.1 300.9H122.1V320.87H215.1V300.9Z" fill="#50568F"/>
<path d="M215.1 300.9H166V320.87H215.1V300.9Z" fill="url(#paint0_linear)"/>
<path d="M142.1 300.9H122.1V320.87H142.1V300.9Z" fill="#57639C"/>
<path d="M157.3 300.9H137.7V320.87H157.3V300.9Z" fill="#6977B5"/>
<path d="M153 300.9H140V320.87H153V300.9Z" fill="#96B0D9"/>
<path d="M194.4 114H142.7L147.4 300.9H189.8L194.4 114Z" fill="#803333"/>
<path d="M189.8 300.9L194.1 126H168.6V300.9H189.8Z" fill="#6E2C37"/>
<path d="M143.9 150.7L193.7 149.7L194 149.3C194.311 148.952 194.474 148.496 194.455 148.03C194.437 147.563 194.237 147.122 193.9 146.8L193.7 146.5L143.7 147.6C143.511 147.754 143.355 147.945 143.242 148.161C143.129 148.377 143.061 148.614 143.042 148.857C143.024 149.1 143.055 149.345 143.133 149.576C143.212 149.806 143.337 150.019 143.5 150.2L143.9 150.7Z" fill="#5E263B"/>
<path d="M144.3 178.4L192.7 180.3L193.1 179.9C193.399 179.557 193.571 179.122 193.59 178.668C193.608 178.213 193.47 177.766 193.2 177.4L192.9 177.1L144.3 175.2C143.92 175.53 143.677 175.991 143.622 176.491C143.566 176.992 143.701 177.495 144 177.9L144.3 178.4Z" fill="#5E263B"/>
<path d="M192.2 203.9H144.9C144.682 203.694 144.508 203.446 144.39 203.171C144.271 202.896 144.21 202.6 144.21 202.3C144.21 202 144.271 201.704 144.39 201.429C144.508 201.154 144.682 200.906 144.9 200.7V200.7L192.4 199.6H192.5C192.809 200.207 192.961 200.882 192.944 201.563C192.926 202.244 192.739 202.909 192.4 203.5L192.2 203.9Z" fill="#5E263B"/>
<path d="M151.9 126C150.4 167.7 151.4 196 155.3 215.3C155.493 216.218 156.018 217.032 156.775 217.586C157.532 218.14 158.467 218.394 159.4 218.3C163.737 217.825 168.021 216.955 172.2 215.7C173.161 215.442 173.995 214.843 174.547 214.015C175.099 213.187 175.331 212.186 175.2 211.2C169.3 166.5 175 124.2 175 124.2L151.9 126Z" fill="#592438"/>
<path d="M269.1 320.9H68L54.5 334.3V429.6L68 443.1H269.1L282.6 429.6V334.3L269.1 320.9Z" fill="#43487A"/>
<path d="M151.5 320.9H68L54.5 334.3V429.6L68 443.1H151.5L140 429.6V334.3L151.5 320.9Z" fill="#616999"/>
<path d="M54.5 429.6H140L151.5 443.1H68L54.5 429.6Z" fill="#505B8A"/>
<path d="M157.3 429.6H282.6L269.1 443.1H151.5L157.3 429.6Z" fill="#352F5C"/>
<path d="M139.9 334.3H54.5V429.62H139.9V334.3Z" fill="#616999"/>
<path d="M151.5 320.9L140 334.3V429.6L151.5 443.1L157.3 429.6V334.3L151.5 320.9Z" fill="#505A91"/>
<path d="M157.3 429.6H140L151.5 443.1L157.3 429.6Z" fill="#3E4275"/>
<path d="M215 300.9H178.7V320.87H215V300.9Z" fill="url(#paint1_linear)"/>
<path d="M151.5 320.9L140 334.3H54.5L68 320.9H151.5Z" fill="#7B9BC2"/>
<path d="M140 334.3H157.3L151.5 320.9L140 334.3Z" fill="#666EA1"/>
<path d="M157.3 334.3H282.6L269.1 320.9H151.5L157.3 334.3Z" fill="#515794"/>
<path d="M139.9 89.1999C152.4 93.3999 153.8 119.5 153.8 119.5H176.8L167 85.3999L139.9 89.1999Z" fill="#7A214C"/>
<path d="M153.6 71.3999C144.3 71.3999 135.9 77.7999 126.6 91.7999C118.9 103.5 110.1 111.6 99.9004 121C93.2004 127.2 85.5004 134.3 77.5004 143.1C66.0004 155.7 67.0004 167.3 73.0004 173.2C75.6552 175.682 79.1661 177.044 82.8004 177H67.8004C64.8614 177.008 61.9814 176.176 59.5004 174.6C50.1004 168.4 46.8004 160.8 50.5004 148.4C54.6004 134.3 79.2004 116.8 92.9004 104.6C104.4 94.3999 106.7 85.9999 115.2 76.8999C116.866 75.1574 118.869 73.7715 121.086 72.826C123.303 71.8806 125.69 71.3954 128.1 71.3999H153.6Z" fill="#B83776"/>
<path d="M82.8002 177C79.1659 177.044 75.655 175.682 73.0002 173.2C67.0002 167.3 66.0002 155.7 77.5002 143.1C85.6002 134.3 93.2002 127.2 99.9002 121C110.1 111.6 118.9 103.5 126.6 91.8C136.7 76.6 145.8 70.3 156 71.5C169.1 73.1 178.6 88.4 182.7 114.8C182.758 115.051 182.762 115.312 182.711 115.565C182.659 115.818 182.554 116.057 182.402 116.265C182.251 116.474 182.056 116.647 181.831 116.774C181.607 116.901 181.357 116.978 181.1 117C180.85 117.043 180.594 117.035 180.348 116.977C180.101 116.919 179.868 116.813 179.663 116.664C179.458 116.515 179.285 116.326 179.154 116.109C179.023 115.892 178.937 115.651 178.9 115.4C175.1 90.9 166.8 76.7 155.6 75.4C147 74.4 139 80.1 129.8 93.9C121.8 106 112.9 114.3 102.5 123.9C95.5002 130.3 88.3002 137 80.3002 145.7C70.6002 156.4 71.0002 165.8 75.7002 170.4C80.4002 175 86.5002 174.9 93.3002 168.3C106.2 155.9 120.5 128.6 130 110.5L134.4 102.1C139.4 92.9 145.4 84.5 156 85.2C166.6 85.9 171.9 95.2 175.5 114.8C175.546 115.049 175.543 115.306 175.489 115.554C175.436 115.802 175.335 116.037 175.191 116.246C175.047 116.455 174.864 116.633 174.651 116.771C174.438 116.909 174.2 117.004 173.95 117.05C173.701 117.096 173.445 117.092 173.196 117.039C172.948 116.986 172.713 116.885 172.504 116.741C172.295 116.597 172.117 116.413 171.979 116.2C171.841 115.988 171.746 115.749 171.7 115.5C167 89.8 158.5 89.2 155.7 89C148.9 88.6 143.8 92.9 137.8 104L133.4 112.3C123.8 130.6 109.3 158.2 96.0002 171.1C91.7002 175.3 87.0002 177 82.8002 177Z" fill="#A62D67"/>
<path d="M178.8 114.8C174.9 90.6999 166.7 76.6999 155.6 75.3999C147 74.3999 139 80.0999 129.8 93.8999C121.8 106 112.9 114.3 102.5 123.9L101.6 124.7C95.6998 133.8 85.0998 150 79.8998 157.7C78.0631 160.625 75.6468 163.144 72.7998 165.1V165.1C73.2529 167.103 74.2574 168.939 75.6998 170.4C79.3998 174 86.4998 174.9 93.2998 168.4C106.2 155.9 120.5 128.6 130 110.5L134.4 102.1C139.4 92.8999 145.4 84.4999 156 85.1999C166.6 85.8999 171.9 95.1999 175.5 114.8H178.8V114.8Z" fill="#7A214C"/>
<path d="M155.6 75.3999C149.1 74.5999 143 77.6999 136.4 85.1999H153.6C154.397 85.0995 155.204 85.0995 156 85.1999C165.7 85.7999 171.9 95.1999 175.5 114.8H178.8C174.9 90.6999 166.7 76.6999 155.6 75.3999Z" fill="#611037"/>
<path d="M112.2 114.8L102.5 123.9L101.6 124.7C95.6998 133.8 85.0998 150 79.8998 157.7C78.0631 160.626 75.6468 163.144 72.7998 165.1V165.1C73.2529 167.103 74.2574 168.939 75.6998 170.4C79.3998 174 86.4998 174.9 93.2998 168.4C105.2 156.8 118.4 132.6 127.8 114.8H112.2Z" fill="#872454"/>
<path d="M116.2 76L115.2 76.9C110.8 81.6 108.1 86.1 104.9 90.7H127.4C131.934 84.0333 136.334 79.1333 140.6 76H116.2Z" fill="#CF3E85"/>
<path d="M49 157.7C49.1 164.9 52.7 170.1 59.5 174.6C61.981 176.176 64.861 177.008 67.8 177H82.8C79.1657 177.044 75.6548 175.682 73 173.2C69.4 169.7 67.7 164.2 69.1 157.7H49Z" fill="#A62D67"/>
<path d="M106.6 114.8H80.8998L76.7998 118.2H102.9L106.6 114.8Z" fill="#C43A7E"/>
<path d="M117.2 92.2L120.8 93.6L114.4 95L117.2 92.2Z" fill="#C43A7E"/>
<path d="M76.8 124.2L72 127.7L78.7 126.7L76.8 124.2Z" fill="#C43A7E"/>
<path d="M100.3 109.2L103 110.9L104.2 108.5L100.3 109.2Z" fill="#C43A7E"/>
<path d="M122.8 78.3999L115.7 83.2999L115.2 80.0999L122.8 78.3999Z" fill="#C43A7E"/>
<path d="M88.9002 320.9L76.2002 334.3H98.8002L111.5 320.9H88.9002Z" fill="#A0C5E8"/>
<path d="M192.1 111.5C176.783 106.6 160.318 106.6 145 111.5C144.29 111.722 143.649 112.124 143.141 112.667C142.633 113.21 142.274 113.876 142.1 114.6L139.5 125.2C139.422 125.501 139.416 125.815 139.481 126.119C139.546 126.423 139.681 126.708 139.875 126.95C140.069 127.193 140.317 127.387 140.599 127.517C140.881 127.647 141.19 127.71 141.5 127.7H195.6C195.911 127.71 196.219 127.647 196.502 127.517C196.784 127.387 197.032 127.193 197.226 126.95C197.42 126.708 197.555 126.423 197.62 126.119C197.685 125.815 197.678 125.501 197.6 125.2L195 114.6C194.826 113.876 194.468 113.21 193.96 112.667C193.451 112.124 192.811 111.722 192.1 111.5V111.5Z" fill="#505A91"/>
<path d="M143.1 129.2L194 130.9L194.1 127.7H143.1V129.2Z" fill="#592438"/>
<path d="M153.1 109.4C151.654 115.433 150.553 121.542 149.8 127.7H177.5C177.9 118.6 178.3 112.3 178.5 108.4C170.038 107.284 161.448 107.622 153.1 109.4V109.4Z" fill="#3D3C6E"/>
<path d="M147.1 289.9L190 291.1C190.429 290.684 190.679 290.118 190.698 289.52C190.716 288.923 190.502 288.342 190.1 287.9V287.9L147 285.5H146.9C146.601 286.089 146.445 286.74 146.445 287.4C146.445 288.06 146.601 288.711 146.9 289.3L147.1 289.9Z" fill="#5E263B"/>
<path d="M146.6 268.9L190.6 267.8L190.9 267.4C191.301 266.819 191.5 266.121 191.464 265.416C191.427 264.71 191.159 264.037 190.7 263.5V263.5L146.5 265.2L146 265.8C145.676 266.181 145.506 266.67 145.525 267.169C145.543 267.669 145.748 268.144 146.1 268.5L146.6 268.9Z" fill="#5E263B"/>
<path d="M146 235L191.1 235.5L191.4 235.1C191.684 234.745 191.839 234.304 191.839 233.85C191.839 233.396 191.684 232.955 191.4 232.6L191.2 232.3L145.9 231.8C145.57 232.16 145.363 232.616 145.309 233.101C145.255 233.586 145.357 234.076 145.6 234.5L146 235Z" fill="#5E263B"/>
<path d="M140 374.9L144.5 383.9L140 385.2V374.9Z" fill="#43487A"/>
<path d="M53.5 358.9L56.4 354L53.5 349V358.9Z" fill="#7CE4CC"/>
<path d="M54.5 415.5L140 395.9V367.7L54.5 388.3V415.5Z" fill="#617099"/>
<path d="M101.1 345.2L123.3 347.7L91.7998 362L101.1 345.2Z" fill="#5A6394"/>
<path d="M231.2 334.3L282.6 364.2V382L194.1 354L231.2 334.3Z" fill="#404478"/>
<path d="M271.501 0H271.001L254.301 23.8V24.4L271.001 48.2H271.501L288.201 24.4V23.8L271.501 0Z" fill="#6A64E3"/>
<path d="M307.1 93.7L318.1 88.8C318.153 88.8 318.204 88.779 318.242 88.7415C318.279 88.704 318.3 88.6531 318.3 88.6C318.3 88.547 318.279 88.4961 318.242 88.4586C318.204 88.4211 318.153 88.4 318.1 88.4L307.1 83.5H307L302.1 72.4C302.073 72.3588 302.036 72.3249 301.992 72.3015C301.949 72.2781 301.9 72.2659 301.85 72.2659C301.801 72.2659 301.752 72.2781 301.709 72.3015C301.665 72.3249 301.628 72.3588 301.6 72.4L296.7 83.5H296.6L285.6 88.4C285.547 88.4 285.496 88.4211 285.459 88.4586C285.421 88.4961 285.4 88.547 285.4 88.6C285.4 88.6531 285.421 88.704 285.459 88.7415C285.496 88.779 285.547 88.8 285.6 88.8L296.6 93.7C296.6 93.8 296.7 93.8 296.7 93.9L301.6 104.9C301.628 104.941 301.665 104.975 301.709 104.999C301.752 105.022 301.801 105.034 301.85 105.034C301.9 105.034 301.949 105.022 301.992 104.999C302.036 104.975 302.073 104.941 302.1 104.9L307 93.9C307 93.8 307 93.8 307.1 93.7Z" fill="white"/>
<path d="M64.3004 257.6L74.2004 253.1C74.4004 253.1 74.4004 252.8 74.2004 252.7L64.3004 248.3H64.1004L59.7004 238.3C59.7004 238.247 59.6793 238.196 59.6418 238.159C59.6043 238.121 59.5534 238.1 59.5004 238.1C59.4473 238.1 59.3965 238.121 59.359 238.159C59.3215 238.196 59.3004 238.247 59.3004 238.3L54.9004 248.3C54.8739 248.3 54.8484 248.311 54.8297 248.329C54.8109 248.348 54.8004 248.374 54.8004 248.4L44.8004 252.8C44.6004 252.9 44.6004 253.2 44.8004 253.2L54.8004 257.7H54.9004L59.3004 267.7C59.3554 267.749 59.4266 267.776 59.5004 267.776C59.5742 267.776 59.6454 267.749 59.7004 267.7L64.1004 257.7L64.3004 257.6Z" fill="#FFED89"/>
<defs>
<linearGradient id="paint0_linear" x1="170.61" y1="310.87" x2="208.27" y2="310.87" gradientUnits="userSpaceOnUse">
<stop stop-color="#50568F"/>
<stop offset="1" stop-color="#3C3C70"/>
</linearGradient>
<linearGradient id="paint1_linear" x1="6107.22" y1="6508.97" x2="7437.97" y2="6508.97" gradientUnits="userSpaceOnUse">
<stop stop-color="#50568F"/>
<stop offset="1" stop-color="#3C3C70"/>
</linearGradient>
</defs>
</svg>
